<svg width="1600" height="550" viewBox="0 0 1600 550" fill="none" xmlns="http://www.w3.org/2000/svg" role="img" aria-labelledby="title desc">
  <title id="title">Fun Facts</title>
  <desc id="desc">A modern avatar fun facts panel for Abhishek Chaskar.</desc>
  <defs>
    <style>
      :root {
        color-scheme: light dark;
        --surface: #F8FAFC;
        --surface-soft: #FFFFFF;
        --ink: #111827;
        --ink-muted: #334155;
        --ink-accent: #6D28D9;
        --line: #CBD5E1;
        --glass-fill: #FFFFFF;
        --glass-opacity: .74;
        --glass-soft-opacity: .58;
        --glass-stroke: #CBD5E1;
        --shadow: #94A3B8;
      }
      @media (prefers-color-scheme: dark) {
        :root {
          --surface: #08080D;
          --surface-soft: #12121B;
          --ink: #FFFFFF;
          --ink-muted: #E5E7EB;
          --ink-accent: #C4B5FD;
          --line: #FFFFFF;
          --glass-fill: #FFFFFF;
          --glass-opacity: .10;
          --glass-soft-opacity: .045;
          --glass-stroke: #FFFFFF;
          --shadow: #000000;
        }
      }
    </style>
    <radialGradient id="cream" cx="0" cy="0" r="1" gradientUnits="userSpaceOnUse" gradientTransform="translate(760 110) rotate(90) scale(500 860)">
      <stop stop-color="var(--surface-soft)"/>
      <stop offset="1" stop-color="var(--surface)"/>
    </radialGradient>
    <linearGradient id="avatar" x1="260" y1="128" x2="404" y2="316" gradientUnits="userSpaceOnUse">
      <stop stop-color="#A5F3FC"/>
      <stop offset="1" stop-color="#E0F2FE"/>
    </linearGradient>
    <filter id="soft" x="-20%" y="-20%" width="140%" height="150%">
      <feDropShadow dx="0" dy="18" stdDeviation="18" flood-color="var(--shadow)" flood-opacity=".12"/>
    </filter>
    <style>.h{font-family:Inter,Segoe UI,Arial,sans-serif;font-weight:900}.t{font-family:Inter,Segoe UI,Arial,sans-serif;font-weight:800}</style>
  </defs>
  <rect width="1600" height="550" rx="34" fill="var(--surface)"/>
  <rect x="18" y="22" width="1564" height="502" rx="28" fill="url(#cream)" filter="url(#soft)"/>
  <path d="M545 74V474" stroke="#111827" stroke-opacity=".25" stroke-dasharray="10 12"/>
  <circle cx="294" cy="244" r="172" stroke="#111827" stroke-opacity=".18" stroke-dasharray="8 12"/>
  <text x="178" y="438" fill="var(--ink)" class="h" font-size="32">ABHISHEK CHASKAR</text>
  <circle cx="226" cy="472" r="5" fill="#8B5CF6"/><circle cx="402" cy="472" r="5" fill="#8B5CF6"/>
  <text x="314" y="480" text-anchor="middle" fill="#8B5CF6" class="h" font-size="24">AI ENGINEER</text>
  <g transform="translate(194 110)">
    <path d="M100 18c66 0 120 54 120 120v58c0 34-28 62-62 62H42c-34 0-62-28-62-62v-58C-20 72 34 18 100 18Z" fill="url(#avatar)" stroke="#111827" stroke-width="4"/>
    <circle cx="72" cy="122" r="12" fill="var(--ink)"/>
    <path d="M126 122c12-12 30-12 42 0" stroke="#111827" stroke-width="4" stroke-linecap="round"/>
    <path d="M74 166c22 22 52 22 74 0" stroke="#111827" stroke-width="5" stroke-linecap="round"/>
    <rect x="18" y="222" width="164" height="78" rx="17" fill="#F8FAFC" stroke="#111827" stroke-width="4"/>
    <path d="M18 252H182M18 276H182" stroke="#A855F7" stroke-width="4"/>
    <circle cx="100" cy="10" r="10" fill="#A78BFA" stroke="#111827" stroke-width="4"/>
  </g>
  <g transform="translate(620 76)">
    <circle cx="0" cy="0" r="25" fill="#8B5CF6" filter="url(#soft)"/>
    <text x="0" y="8" text-anchor="middle" fill="var(--ink)" class="h" font-size="26">✦</text>
    <text x="50" y="10" fill="var(--ink)" class="h" font-size="34">FUN FACTS</text>
    <path d="M50 28H184" stroke="#8B5CF6" stroke-width="4"/>
  </g>
  <g class="t" font-size="19" fill="var(--ink)">
    <g transform="translate(615 145)" filter="url(#soft)">
      <rect width="865" height="76" rx="38" fill="#FFF7D6" stroke="#FBBF24"/>
      <circle cx="42" cy="38" r="23" fill="#FBBF24"/><text x="42" y="47" text-anchor="middle" font-size="27">◉</text>
      <path d="M90 20V56" stroke="#111827" stroke-opacity=".24"/>
      <text x="126" y="46">I enjoy turning ideas into real products, not just demos.</text>
    </g>
    <g transform="translate(615 242)" filter="url(#soft)">
      <rect width="865" height="76" rx="38" fill="#FFE4E6" stroke="#FDA4AF"/>
      <circle cx="42" cy="38" r="23" fill="#F43F5E" fill-opacity=".75"/><text x="42" y="47" text-anchor="middle" fill="var(--ink)" font-size="25">♟</text>
      <path d="M90 20V56" stroke="#111827" stroke-opacity=".24"/>
      <text x="126" y="46">I like leading hackathon teams and shipping under pressure.</text>
    </g>
    <g transform="translate(615 339)" filter="url(#soft)">
      <rect width="865" height="76" rx="38" fill="#E0F2FE" stroke="#7DD3FC"/>
      <circle cx="42" cy="38" r="23" fill="#38BDF8"/><text x="42" y="47" text-anchor="middle" fill="var(--ink)" font-size="25">⚡</text>
      <path d="M90 20V56" stroke="#111827" stroke-opacity=".24"/>
      <text x="126" y="46">I automate workflows with AI, n8n, OpenAI, and Gemini.</text>
    </g>
    <g transform="translate(615 436)" filter="url(#soft)">
      <rect width="865" height="76" rx="38" fill="#F3E8FF" stroke="#C4B5FD"/>
      <circle cx="42" cy="38" r="23" fill="#8B5CF6"/><text x="42" y="47" text-anchor="middle" fill="var(--ink)" font-size="25">↗</text>
      <path d="M90 20V56" stroke="#111827" stroke-opacity=".24"/>
      <text x="126" y="46">I help grow my family's apparel manufacturing business with tech.</text>
    </g>
  </g>
  <text x="158" y="114" fill="#FCA5A5" class="h" font-size="28">✧</text>
  <text x="448" y="136" fill="#FBBF24" class="h" font-size="28">✦</text>
  <circle cx="118" cy="360" r="7" fill="#A5B4FC"/>
  <path d="M108 250l10-18 10 18h-20Z" stroke="#FCA5A5" stroke-width="4"/>
  <circle cx="476" cy="318" r="7" fill="#67E8F9"/>
</svg>
