<svg width="1400" height="420" viewBox="0 0 1400 420" fill="none" xmlns="http://www.w3.org/2000/svg" role="img" aria-labelledby="title desc">
  <title id="title">Abhishek Chaskar - AI Engineer</title>
  <desc id="desc">Premium dark profile hero for Abhishek Chaskar.</desc>
  <defs>
    <radialGradient id="accent" cx="0" cy="0" r="1" gradientUnits="userSpaceOnUse" gradientTransform="translate(700 0) rotate(90) scale(420 760)">
      <stop stop-color="#7C3AED" stop-opacity=".42"/>
      <stop offset="1" stop-color="#0B0F19" stop-opacity="0"/>
    </radialGradient>
    <linearGradient id="titleGrad" x1="244" y1="155" x2="998" y2="155" gradientUnits="userSpaceOnUse">
      <stop stop-color="#F8FAFC"/>
      <stop offset="1" stop-color="#C4B5FD"/>
    </linearGradient>
    <filter id="shadow" x="-10%" y="-10%" width="120%" height="130%">
      <feDropShadow dx="0" dy="24" stdDeviation="24" flood-color="#000000" flood-opacity=".28"/>
    </filter>
  </defs>
  <rect width="1400" height="420" rx="28" fill="#0B0F19"/>
  <rect width="1400" height="420" rx="28" fill="url(#accent)"/>
  <g filter="url(#shadow)">
    <rect x="80" y="58" width="1240" height="304" rx="26" fill="#111827" fill-opacity=".82" stroke="#FFFFFF" stroke-opacity=".08"/>
    <rect x="112" y="88" width="1176" height="244" rx="20" fill="#0B0F19" fill-opacity=".46" stroke="#FFFFFF" stroke-opacity=".06"/>
  </g>
  <g font-family="Inter, Segoe UI, Arial, sans-serif">
    <g transform="translate(150 112)">
      <rect width="222" height="38" rx="19" fill="#FFFFFF" fill-opacity=".06" stroke="#FFFFFF" stroke-opacity=".08"/>
      <circle cx="24" cy="19" r="5" fill="#7C3AED"/>
      <text x="44" y="25" fill="#F8FAFC" font-size="14" font-weight="700">Available for collaboration</text>
    </g>
    <text x="150" y="206" fill="url(#titleGrad)" font-size="68" font-weight="900">Abhishek Chaskar</text>
    <text x="154" y="254" fill="#C4B5FD" font-size="26" font-weight="750">AI Engineer / Full Stack Developer / Automation Builder</text>
    <text x="154" y="298" fill="#94A3B8" font-size="18" font-weight="500">Building production-grade AI products, agentic systems, and automation workflows.</text>
    <g transform="translate(154 326)" font-size="13" font-weight="800" text-anchor="middle">
      <g><rect width="104" height="34" rx="17" fill="#7C3AED" fill-opacity=".18" stroke="#7C3AED" stroke-opacity=".4"/><text x="52" y="22" fill="#F8FAFC">OpenAI</text></g>
      <g transform="translate(116 0)"><rect width="104" height="34" rx="17" fill="#FFFFFF" fill-opacity=".06" stroke="#FFFFFF" stroke-opacity=".08"/><text x="52" y="22" fill="#F8FAFC">Gemini</text></g>
      <g transform="translate(232 0)"><rect width="84" height="34" rx="17" fill="#FFFFFF" fill-opacity=".06" stroke="#FFFFFF" stroke-opacity=".08"/><text x="42" y="22" fill="#F8FAFC">n8n</text></g>
      <g transform="translate(328 0)"><rect width="96" height="34" rx="17" fill="#FFFFFF" fill-opacity=".06" stroke="#FFFFFF" stroke-opacity=".08"/><text x="48" y="22" fill="#F8FAFC">React</text></g>
      <g transform="translate(436 0)"><rect width="108" height="34" rx="17" fill="#FFFFFF" fill-opacity=".06" stroke="#FFFFFF" stroke-opacity=".08"/><text x="54" y="22" fill="#F8FAFC">Node.js</text></g>
      <g transform="translate(556 0)"><rect width="114" height="34" rx="17" fill="#FFFFFF" fill-opacity=".06" stroke="#FFFFFF" stroke-opacity=".08"/><text x="57" y="22" fill="#F8FAFC">GraphQL</text></g>
    </g>
    <g transform="translate(1100 126)">
      <rect width="142" height="142" rx="26" fill="#111827" stroke="#FFFFFF" stroke-opacity=".08"/>
      <text x="71" y="87" text-anchor="middle" fill="#F8FAFC" font-size="58" font-weight="900">AC</text>
      <circle cx="32" cy="32" r="6" fill="#7C3AED"/>
      <circle cx="112" cy="112" r="7" fill="#7C3AED"/>
    </g>
  </g>
</svg>
