<svg width="1200" height="760" viewBox="0 0 1200 760" fill="none" xmlns="http://www.w3.org/2000/svg" role="img" aria-labelledby="title desc">
  <title id="title">Recent projects showcase</title>
  <desc id="desc">Project cards with visual mockups for Agentic AI Assistant, AI Automation Workflow System, HerbTech, Abhishek Apparels Digital Platform, and Portfolio.</desc>
  <defs>
    <style>
      :root {
        color-scheme: light dark;
        --surface: #F8FAFC;
        --surface-soft: #FFFFFF;
        --ink: #111827;
        --ink-muted: #334155;
        --ink-accent: #6D28D9;
        --line: #CBD5E1;
        --glass-fill: #FFFFFF;
        --glass-opacity: .74;
        --glass-soft-opacity: .58;
        --glass-stroke: #CBD5E1;
        --shadow: #94A3B8;
      }
      @media (prefers-color-scheme: dark) {
        :root {
          --surface: #08080D;
          --surface-soft: #12121B;
          --ink: #FFFFFF;
          --ink-muted: #E5E7EB;
          --ink-accent: #C4B5FD;
          --line: #FFFFFF;
          --glass-fill: #FFFFFF;
          --glass-opacity: .10;
          --glass-soft-opacity: .045;
          --glass-stroke: #FFFFFF;
          --shadow: #000000;
        }
      }
    </style>
    <linearGradient id="bg" x1="0" y1="0" x2="1200" y2="760"><stop stop-color="var(--surface)"/><stop offset="1" stop-color="var(--surface-soft)"/></linearGradient>
    <linearGradient id="screen" x1="0" y1="0" x2="1" y2="1"><stop stop-color="#12121B"/><stop offset="1" stop-color="#08080D"/></linearGradient>
    <filter id="shadow" x="-20%" y="-20%" width="140%" height="150%"><feDropShadow dx="0" dy="16" stdDeviation="18" flood-color="var(--shadow)" flood-opacity=".18"/></filter>
  </defs>
  <rect width="1200" height="760" rx="32" fill="url(#bg)"/>
  <text x="72" y="70" fill="var(--ink)" font-family="Inter, Segoe UI, Arial, sans-serif" font-size="16" font-weight="750">Curious about my work?</text>
  <text x="72" y="110" fill="var(--ink)" font-family="Inter, Segoe UI, Arial, sans-serif" font-size="42" font-weight="900">Recent projects</text>
  <g font-family="Inter, Segoe UI, Arial, sans-serif">
    <g transform="translate(72 154)" filter="url(#shadow)">
      <rect width="320" height="220" rx="18" fill="var(--surface-soft)"/>
      <rect x="18" y="18" width="284" height="138" rx="12" fill="url(#screen)"/>
      <circle cx="278" cy="42" r="16" fill="#8B5CF6"/><text x="38" y="58" fill="#5EEBFF" font-size="18" font-weight="850">Agentic AI</text>
      <rect x="38" y="78" width="136" height="12" rx="6" fill="var(--surface-soft)" fill-opacity=".32"/><rect x="38" y="102" width="220" height="10" rx="5" fill="var(--surface-soft)" fill-opacity=".18"/>
      <path d="M202 80h58v48h-58z" fill="#8B5CF6" fill-opacity=".28" stroke="#5EEBFF"/>
      <text x="24" y="188" fill="var(--ink)" font-size="18" font-weight="850">Agentic AI Assistant</text>
    </g>
    <g transform="translate(440 154)" filter="url(#shadow)">
      <rect width="320" height="220" rx="18" fill="var(--surface-soft)"/>
      <rect x="18" y="18" width="284" height="138" rx="12" fill="#F8FAFC"/>
      <path d="M56 86h62M118 86c44-52 82 52 126 0" stroke="#8B5CF6" stroke-width="8" stroke-linecap="round"/><circle cx="56" cy="86" r="12" fill="#5EEBFF"/><circle cx="244" cy="86" r="12" fill="#A855F7"/>
      <text x="24" y="188" fill="var(--ink)" font-size="18" font-weight="850">AI Automation Workflow</text>
    </g>
    <g transform="translate(808 154)" filter="url(#shadow)">
      <rect width="320" height="220" rx="18" fill="var(--surface-soft)"/>
      <rect x="18" y="18" width="284" height="138" rx="12" fill="#ECFDF5"/>
      <circle cx="88" cy="82" r="44" fill="#22C55E" fill-opacity=".22"/><path d="M88 44c38 34 24 74 0 90-24-16-38-56 0-90Z" fill="#16A34A"/>
      <rect x="150" y="54" width="114" height="14" rx="7" fill="var(--surface-soft)"/><rect x="150" y="82" width="84" height="10" rx="5" fill="#22C55E"/><rect x="150" y="106" width="118" height="10" rx="5" fill="#CBD5E1"/>
      <text x="24" y="188" fill="var(--ink)" font-size="18" font-weight="850">HerbTech</text>
    </g>
    <g transform="translate(256 430)" filter="url(#shadow)">
      <rect width="320" height="220" rx="18" fill="var(--surface-soft)"/>
      <rect x="18" y="18" width="284" height="138" rx="12" fill="#FFF7ED"/>
      <rect x="44" y="48" width="74" height="86" rx="10" fill="#EF4444"/><rect x="132" y="48" width="74" height="86" rx="10" fill="#F97316"/><rect x="220" y="48" width="48" height="86" rx="10" fill="var(--surface-soft)"/>
      <text x="24" y="188" fill="var(--ink)" font-size="18" font-weight="850">Abhishek Apparels Platform</text>
    </g>
    <g transform="translate(624 430)" filter="url(#shadow)">
      <rect width="320" height="220" rx="18" fill="var(--surface-soft)"/>
      <rect x="18" y="18" width="284" height="138" rx="12" fill="url(#screen)"/>
      <rect x="40" y="44" width="118" height="14" rx="7" fill="#5EEBFF"/><rect x="40" y="74" width="220" height="12" rx="6" fill="var(--surface-soft)" fill-opacity=".28"/><rect x="40" y="104" width="82" height="30" rx="15" fill="#8B5CF6"/>
      <circle cx="246" cy="56" r="24" fill="var(--ink)" fill-opacity=".16"/>
      <text x="24" y="188" fill="var(--ink)" font-size="18" font-weight="850">Portfolio / Personal Website</text>
    </g>
  </g>
</svg>
