<svg width="1600" height="1080" viewBox="0 0 1600 1080" fill="none" xmlns="http://www.w3.org/2000/svg" role="img" aria-labelledby="title desc">
  <title id="title">Tech Stack</title>
  <desc id="desc">Categorized technology stack dashboard with glass cards and logo tiles.</desc>
  <defs>
    <radialGradient id="auroraA" cx="0" cy="0" r="1" gradientUnits="userSpaceOnUse" gradientTransform="translate(310 20) rotate(42) scale(760 380)">
      <stop stop-color="#8B5CF6" stop-opacity=".34"/>
      <stop offset="1" stop-color="#020617" stop-opacity="0"/>
    </radialGradient>
    <radialGradient id="auroraB" cx="0" cy="0" r="1" gradientUnits="userSpaceOnUse" gradientTransform="translate(1260 60) rotate(137) scale(780 390)">
      <stop stop-color="#5EEBFF" stop-opacity=".22"/>
      <stop offset="1" stop-color="#020617" stop-opacity="0"/>
    </radialGradient>
    <linearGradient id="headline" x1="486" y1="72" x2="1114" y2="72" gradientUnits="userSpaceOnUse">
      <stop stop-color="#FFFFFF"/>
      <stop offset=".42" stop-color="#C084FC"/>
      <stop offset="1" stop-color="#5EEBFF"/>
    </linearGradient>
    <linearGradient id="card" x1="0" y1="0" x2="1" y2="1">
      <stop stop-color="#FFFFFF" stop-opacity=".11"/>
      <stop offset="1" stop-color="#FFFFFF" stop-opacity=".035"/>
    </linearGradient>
    <linearGradient id="tile" x1="0" y1="0" x2="1" y2="1">
      <stop stop-color="#FFFFFF" stop-opacity=".13"/>
      <stop offset="1" stop-color="#FFFFFF" stop-opacity=".055"/>
    </linearGradient>
    <filter id="shadow" x="-20%" y="-20%" width="140%" height="150%">
      <feDropShadow dx="0" dy="18" stdDeviation="18" flood-color="#000000" flood-opacity=".28"/>
    </filter>
    <style>
      .h{font-family:Inter,Segoe UI,Arial,sans-serif;font-weight:900}
      .t{font-family:Inter,Segoe UI,Arial,sans-serif;font-weight:700}
      .s{font-family:Inter,Segoe UI,Arial,sans-serif;font-weight:500}
    </style>
  </defs>

  <rect width="1600" height="1080" rx="34" fill="#020617"/>
  <rect width="1600" height="1080" rx="34" fill="url(#auroraA)"/>
  <rect width="1600" height="1080" rx="34" fill="url(#auroraB)"/>
  <text x="800" y="90" text-anchor="middle" fill="url(#headline)" class="h" font-size="76">✦ Tech Stack ✦</text>
  <text x="800" y="132" text-anchor="middle" fill="#C4B5FD" class="s" font-size="23">AI products • Full Stack Systems • Workflow Automation</text>

  <g filter="url(#shadow)">
    <g transform="translate(30 160)">
      <rect width="500" height="360" rx="18" fill="url(#card)" stroke="#8B5CF6"/>
      <rect x="26" y="26" width="70" height="70" rx="20" fill="#8B5CF6" fill-opacity=".15" stroke="#8B5CF6"/>
      <text x="61" y="72" text-anchor="middle" fill="#C084FC" class="h" font-size="36">▣</text>
      <text x="120" y="56" fill="#FFFFFF" class="h" font-size="28">Frontend</text>
      <text x="120" y="84" fill="#CBD5E1" class="s" font-size="17">Building responsive &amp; interactive UIs</text>
      <path d="M120 105H475" stroke="#FFFFFF" stroke-opacity=".08"/>
      <g class="t" font-size="15" text-anchor="middle">
        <g transform="translate(22 124)"><rect width="84" height="104" rx="12" fill="url(#tile)" stroke="#FFFFFF" stroke-opacity=".08"/><text x="42" y="52" fill="#61DAFB" class="h" font-size="32">⚛</text><text x="42" y="82" fill="#fff">React</text></g>
        <g transform="translate(118 124)"><rect width="84" height="104" rx="12" fill="url(#tile)" stroke="#FFFFFF" stroke-opacity=".08"/><text x="42" y="52" fill="#fff" class="h" font-size="32">N</text><text x="42" y="82" fill="#fff">Next.js</text></g>
        <g transform="translate(214 124)"><rect width="84" height="104" rx="12" fill="url(#tile)" stroke="#FFFFFF" stroke-opacity=".08"/><rect x="21" y="20" width="42" height="42" fill="#F7DF1E"/><text x="42" y="51" fill="#111827" class="h" font-size="24">JS</text><text x="42" y="82" fill="#fff">JavaScript</text></g>
        <g transform="translate(310 124)"><rect width="84" height="104" rx="12" fill="url(#tile)" stroke="#FFFFFF" stroke-opacity=".08"/><text x="42" y="54" fill="#F97316" class="h" font-size="34">H5</text><text x="42" y="82" fill="#fff">HTML5</text></g>
        <g transform="translate(406 124)"><rect width="84" height="104" rx="12" fill="url(#tile)" stroke="#FFFFFF" stroke-opacity=".08"/><text x="42" y="54" fill="#38BDF8" class="h" font-size="34">C3</text><text x="42" y="82" fill="#fff">CSS3</text></g>
        <g transform="translate(22 244)"><rect width="84" height="88" rx="12" fill="url(#tile)" stroke="#FFFFFF" stroke-opacity=".08"/><text x="42" y="49" fill="#8B5CF6" class="h" font-size="34">B</text><text x="42" y="72" fill="#fff">Bootstrap</text></g>
        <g transform="translate(118 244)"><rect width="84" height="88" rx="12" fill="url(#tile)" stroke="#FFFFFF" stroke-opacity=".08"/><text x="42" y="49" fill="#22D3EE" class="h" font-size="30">F</text><text x="42" y="72" fill="#fff">Framer</text></g>
      </g>
    </g>

    <g transform="translate(550 160)">
      <rect width="500" height="360" rx="18" fill="url(#card)" stroke="#10B981"/>
      <rect x="26" y="26" width="70" height="70" rx="20" fill="#10B981" fill-opacity=".13" stroke="#10B981"/>
      <text x="61" y="72" text-anchor="middle" fill="#5EEBFF" class="h" font-size="34">▤</text>
      <text x="120" y="56" fill="#FFFFFF" class="h" font-size="28">Backend</text>
      <text x="120" y="84" fill="#CBD5E1" class="s" font-size="17">APIs, services &amp; server-side logic</text>
      <path d="M120 105H475" stroke="#FFFFFF" stroke-opacity=".08"/>
      <g class="t" font-size="15" text-anchor="middle">
        <g transform="translate(22 124)"><rect width="84" height="104" rx="12" fill="url(#tile)" stroke="#FFFFFF" stroke-opacity=".08"/><text x="42" y="54" fill="#84CC16" class="h" font-size="29">JS</text><text x="42" y="82" fill="#fff">Node.js</text></g>
        <g transform="translate(118 124)"><rect width="84" height="104" rx="12" fill="url(#tile)" stroke="#FFFFFF" stroke-opacity=".08"/><text x="42" y="54" fill="#2DD4BF" class="h" font-size="34">⚡</text><text x="42" y="82" fill="#fff">FastAPI</text></g>
        <g transform="translate(214 124)"><rect width="84" height="104" rx="12" fill="url(#tile)" stroke="#FFFFFF" stroke-opacity=".08"/><text x="42" y="54" fill="#E5E7EB" class="h" font-size="29">Fl</text><text x="42" y="82" fill="#fff">Flask</text></g>
        <g transform="translate(310 124)"><rect width="84" height="104" rx="12" fill="url(#tile)" stroke="#FFFFFF" stroke-opacity=".08"/><text x="42" y="54" fill="#EC4899" class="h" font-size="31">◇</text><text x="42" y="82" fill="#fff">GraphQL</text></g>
        <g transform="translate(406 124)"><rect width="84" height="104" rx="12" fill="url(#tile)" stroke="#FFFFFF" stroke-opacity=".08"/><text x="42" y="54" fill="#38BDF8" class="h" font-size="29">DB</text><text x="42" y="82" fill="#fff">Sequelize</text></g>
        <g transform="translate(22 244)"><rect width="84" height="88" rx="12" fill="url(#tile)" stroke="#FFFFFF" stroke-opacity=".08"/><text x="42" y="48" fill="#84CC16" class="h" font-size="26">{}</text><text x="42" y="72" fill="#fff">REST APIs</text></g>
      </g>
    </g>

    <g transform="translate(1070 160)">
      <rect width="500" height="360" rx="18" fill="url(#card)" stroke="#8B5CF6"/>
      <rect x="26" y="26" width="70" height="70" rx="20" fill="#A855F7" fill-opacity=".13" stroke="#A855F7"/>
      <text x="61" y="72" text-anchor="middle" fill="#C084FC" class="h" font-size="34">◈</text>
      <text x="120" y="56" fill="#FFFFFF" class="h" font-size="28">AI / Data</text>
      <text x="120" y="84" fill="#CBD5E1" class="s" font-size="17">Intelligence, models &amp; data processing</text>
      <path d="M120 105H475" stroke="#FFFFFF" stroke-opacity=".08"/>
      <g class="t" font-size="15" text-anchor="middle">
        <g transform="translate(22 124)"><rect width="84" height="104" rx="12" fill="url(#tile)" stroke="#FFFFFF" stroke-opacity=".08"/><text x="42" y="54" fill="#3776AB" class="h" font-size="30">Py</text><text x="42" y="82" fill="#fff">Python</text></g>
        <g transform="translate(118 124)"><rect width="84" height="104" rx="12" fill="url(#tile)" stroke="#FFFFFF" stroke-opacity=".08"/><text x="42" y="54" fill="#F97316" class="h" font-size="30">TF</text><text x="42" y="82" fill="#fff">TensorFlow</text></g>
        <g transform="translate(214 124)"><rect width="84" height="104" rx="12" fill="url(#tile)" stroke="#FFFFFF" stroke-opacity=".08"/><text x="42" y="54" fill="#F97316" class="h" font-size="30">PT</text><text x="42" y="82" fill="#fff">PyTorch</text></g>
        <g transform="translate(310 124)"><rect width="84" height="104" rx="12" fill="url(#tile)" stroke="#FFFFFF" stroke-opacity=".08"/><text x="42" y="54" fill="#38BDF8" class="h" font-size="24">learn</text><text x="42" y="82" fill="#fff">scikit-learn</text></g>
        <g transform="translate(406 124)"><rect width="84" height="104" rx="12" fill="url(#tile)" stroke="#FFFFFF" stroke-opacity=".08"/><text x="42" y="54" fill="#22C55E" class="h" font-size="29">CV</text><text x="42" y="82" fill="#fff">OpenCV</text></g>
        <g transform="translate(22 244)"><rect width="84" height="88" rx="12" fill="url(#tile)" stroke="#FFFFFF" stroke-opacity=".08"/><text x="42" y="48" fill="#60A5FA" class="h" font-size="27">Num</text><text x="42" y="72" fill="#fff">NumPy</text></g>
        <g transform="translate(118 244)"><rect width="84" height="88" rx="12" fill="url(#tile)" stroke="#FFFFFF" stroke-opacity=".08"/><text x="42" y="48" fill="#F8FAFC" class="h" font-size="27">Pd</text><text x="42" y="72" fill="#fff">Pandas</text></g>
        <g transform="translate(214 244)"><rect width="84" height="88" rx="12" fill="url(#tile)" stroke="#FFFFFF" stroke-opacity=".08"/><text x="42" y="48" fill="#FFFFFF" class="h" font-size="23">OpenAI</text><text x="42" y="72" fill="#fff">OpenAI</text></g>
        <g transform="translate(310 244)"><rect width="84" height="88" rx="12" fill="url(#tile)" stroke="#FFFFFF" stroke-opacity=".08"/><text x="42" y="48" fill="#5EEBFF" class="h" font-size="30">✦</text><text x="42" y="72" fill="#fff">Gemini</text></g>
      </g>
    </g>

    <g transform="translate(30 538)">
      <rect width="500" height="276" rx="18" fill="url(#card)" stroke="#F59E0B"/>
      <text x="120" y="62" fill="#FFFFFF" class="h" font-size="28">Databases / CMS</text>
      <text x="120" y="90" fill="#CBD5E1" class="s" font-size="17">Data storage &amp; content management</text>
      <rect x="26" y="26" width="70" height="70" rx="20" fill="#F59E0B" fill-opacity=".13" stroke="#F59E0B"/>
      <text x="61" y="72" text-anchor="middle" fill="#FDE68A" class="h" font-size="34">◎</text>
      <g class="t" font-size="15" text-anchor="middle">
        <g transform="translate(22 124)"><rect width="96" height="104" rx="12" fill="url(#tile)" stroke="#FFFFFF" stroke-opacity=".08"/><text x="48" y="55" fill="#34D399" class="h" font-size="34">S</text><text x="48" y="84" fill="#fff">Supabase</text></g>
        <g transform="translate(138 124)"><rect width="96" height="104" rx="12" fill="url(#tile)" stroke="#FFFFFF" stroke-opacity=".08"/><text x="48" y="55" fill="#38BDF8" class="h" font-size="28">My</text><text x="48" y="84" fill="#fff">MySQL</text></g>
        <g transform="translate(254 124)"><rect width="96" height="104" rx="12" fill="url(#tile)" stroke="#FFFFFF" stroke-opacity=".08"/><text x="48" y="55" fill="#8B5CF6" class="h" font-size="30">S</text><text x="48" y="84" fill="#fff">Strapi</text></g>
      </g>
    </g>

    <g transform="translate(550 538)">
      <rect width="500" height="276" rx="18" fill="url(#card)" stroke="#EC4899"/>
      <text x="120" y="62" fill="#FFFFFF" class="h" font-size="28">Automation / Testing</text>
      <text x="120" y="90" fill="#CBD5E1" class="s" font-size="17">Automation, testing &amp; quality</text>
      <rect x="26" y="26" width="70" height="70" rx="20" fill="#EC4899" fill-opacity=".13" stroke="#EC4899"/>
      <text x="61" y="72" text-anchor="middle" fill="#F472B6" class="h" font-size="34">⚙</text>
      <g class="t" font-size="15" text-anchor="middle">
        <g transform="translate(22 124)"><rect width="84" height="104" rx="12" fill="url(#tile)" stroke="#FFFFFF" stroke-opacity=".08"/><text x="42" y="55" fill="#EC4899" class="h" font-size="28">n8n</text><text x="42" y="84" fill="#fff">n8n</text></g>
        <g transform="translate(118 124)"><rect width="84" height="104" rx="12" fill="url(#tile)" stroke="#FFFFFF" stroke-opacity=".08"/><text x="42" y="55" fill="#84CC16" class="h" font-size="28">Se</text><text x="42" y="84" fill="#fff">Selenium</text></g>
        <g transform="translate(214 124)"><rect width="84" height="104" rx="12" fill="url(#tile)" stroke="#FFFFFF" stroke-opacity=".08"/><text x="42" y="55" fill="#22C55E" class="h" font-size="28">PW</text><text x="42" y="84" fill="#fff">Playwright</text></g>
        <g transform="translate(310 124)"><rect width="84" height="104" rx="12" fill="url(#tile)" stroke="#FFFFFF" stroke-opacity=".08"/><text x="42" y="55" fill="#22C55E" class="h" font-size="28">PP</text><text x="42" y="84" fill="#fff">Puppeteer</text></g>
        <g transform="translate(406 124)"><rect width="84" height="104" rx="12" fill="url(#tile)" stroke="#FFFFFF" stroke-opacity=".08"/><text x="42" y="48" fill="#F8FAFC" class="h" font-size="26">&gt;_</text><text x="42" y="78" fill="#fff">Prompt</text><text x="42" y="96" fill="#fff">Engineering</text></g>
      </g>
    </g>

    <g transform="translate(1070 538)">
      <rect width="500" height="276" rx="18" fill="url(#card)" stroke="#0EA5E9"/>
      <text x="120" y="62" fill="#FFFFFF" class="h" font-size="28">Cloud / DevOps</text>
      <text x="120" y="90" fill="#CBD5E1" class="s" font-size="17">Deploy, manage &amp; scale applications</text>
      <rect x="26" y="26" width="70" height="70" rx="20" fill="#0EA5E9" fill-opacity=".13" stroke="#0EA5E9"/>
      <text x="61" y="72" text-anchor="middle" fill="#38BDF8" class="h" font-size="34">☁</text>
      <g class="t" font-size="15" text-anchor="middle">
        <g transform="translate(22 124)"><rect width="84" height="104" rx="12" fill="url(#tile)" stroke="#FFFFFF" stroke-opacity=".08"/><text x="42" y="55" fill="#FF9900" class="h" font-size="27">aws</text><text x="42" y="84" fill="#fff">AWS</text></g>
        <g transform="translate(118 124)"><rect width="84" height="104" rx="12" fill="url(#tile)" stroke="#FFFFFF" stroke-opacity=".08"/><text x="42" y="48" fill="#FACC15" class="h" font-size="26">G</text><text x="42" y="78" fill="#fff">Google</text><text x="42" y="96" fill="#fff">Cloud</text></g>
        <g transform="translate(214 124)"><rect width="84" height="104" rx="12" fill="url(#tile)" stroke="#FFFFFF" stroke-opacity=".08"/><text x="42" y="55" fill="#F97316" class="h" font-size="24">CF</text><text x="42" y="84" fill="#fff">Cloudflare</text></g>
        <g transform="translate(310 124)"><rect width="84" height="104" rx="12" fill="url(#tile)" stroke="#FFFFFF" stroke-opacity=".08"/><text x="42" y="55" fill="#FFFFFF" class="h" font-size="34">▲</text><text x="42" y="84" fill="#fff">Vercel</text></g>
        <g transform="translate(406 124)"><rect width="84" height="104" rx="12" fill="url(#tile)" stroke="#FFFFFF" stroke-opacity=".08"/><text x="42" y="55" fill="#38BDF8" class="h" font-size="30">⚓</text><text x="42" y="84" fill="#fff">Docker</text></g>
      </g>
    </g>

    <g transform="translate(30 832)">
      <rect width="1540" height="210" rx="18" fill="url(#card)" stroke="#8B5CF6"/>
      <text x="120" y="62" fill="#FFFFFF" class="h" font-size="28">Tools / Design</text>
      <text x="120" y="90" fill="#CBD5E1" class="s" font-size="17">Development tools &amp; design workflow</text>
      <rect x="26" y="26" width="70" height="70" rx="20" fill="#8B5CF6" fill-opacity=".13" stroke="#8B5CF6"/>
      <text x="61" y="72" text-anchor="middle" fill="#C084FC" class="h" font-size="34">✣</text>
      <g class="t" font-size="15" text-anchor="middle">
        <g transform="translate(22 112)"><rect width="165" height="76" rx="12" fill="url(#tile)" stroke="#FFFFFF" stroke-opacity=".08"/><text x="82" y="38" fill="#F97316" class="h" font-size="28">Git</text><text x="82" y="62" fill="#fff">Git</text></g>
        <g transform="translate(198 112)"><rect width="165" height="76" rx="12" fill="url(#tile)" stroke="#FFFFFF" stroke-opacity=".08"/><text x="82" y="38" fill="#fff" class="h" font-size="28">GH</text><text x="82" y="62" fill="#fff">GitHub</text></g>
        <g transform="translate(374 112)"><rect width="165" height="76" rx="12" fill="url(#tile)" stroke="#FFFFFF" stroke-opacity=".08"/><text x="82" y="38" fill="#F24E1E" class="h" font-size="28">Figma</text><text x="82" y="62" fill="#fff">Figma</text></g>
        <g transform="translate(550 112)"><rect width="165" height="76" rx="12" fill="url(#tile)" stroke="#FFFFFF" stroke-opacity=".08"/><text x="82" y="38" fill="#fff" class="h" font-size="28">N</text><text x="82" y="62" fill="#fff">Notion</text></g>
        <g transform="translate(726 112)"><rect width="165" height="76" rx="12" fill="url(#tile)" stroke="#FFFFFF" stroke-opacity=".08"/><text x="82" y="38" fill="#3B82F6" class="h" font-size="28">Jira</text><text x="82" y="62" fill="#fff">Jira</text></g>
        <g transform="translate(902 112)"><rect width="165" height="76" rx="12" fill="url(#tile)" stroke="#FFFFFF" stroke-opacity=".08"/><text x="82" y="38" fill="#3B82F6" class="h" font-size="28">Conf</text><text x="82" y="62" fill="#fff">Confluence</text></g>
        <g transform="translate(1230 112)"><rect width="165" height="76" rx="12" fill="url(#tile)" stroke="#FFFFFF" stroke-opacity=".08"/><text x="82" y="38" fill="#5EEBFF" class="h" font-size="28">Canva</text><text x="82" y="62" fill="#fff">Canva</text></g>
      </g>
    </g>
  </g>
</svg>
