<svg width="1600" height="1060" viewBox="0 0 1600 1060" fill="none" xmlns="http://www.w3.org/2000/svg" role="img" aria-labelledby="title desc">
  <title id="title">Tech Stack</title>
  <desc id="desc">Categorized technology stack dashboard using local logo assets.</desc>
  <defs>
    <radialGradient id="auroraA" cx="0" cy="0" r="1" gradientUnits="userSpaceOnUse" gradientTransform="translate(310 20) rotate(42) scale(760 380)">
      <stop stop-color="#8B5CF6" stop-opacity=".34"/>
      <stop offset="1" stop-color="#020617" stop-opacity="0"/>
    </radialGradient>
    <radialGradient id="auroraB" cx="0" cy="0" r="1" gradientUnits="userSpaceOnUse" gradientTransform="translate(1260 60) rotate(137) scale(780 390)">
      <stop stop-color="#5EEBFF" stop-opacity=".22"/>
      <stop offset="1" stop-color="#020617" stop-opacity="0"/>
    </radialGradient>
    <linearGradient id="headline" x1="486" y1="72" x2="1114" y2="72" gradientUnits="userSpaceOnUse">
      <stop stop-color="#FFFFFF"/>
      <stop offset=".42" stop-color="#C084FC"/>
      <stop offset="1" stop-color="#5EEBFF"/>
    </linearGradient>
    <linearGradient id="card" x1="0" y1="0" x2="1" y2="1">
      <stop stop-color="#FFFFFF" stop-opacity=".11"/>
      <stop offset="1" stop-color="#FFFFFF" stop-opacity=".035"/>
    </linearGradient>
    <linearGradient id="tile" x1="0" y1="0" x2="1" y2="1">
      <stop stop-color="#FFFFFF" stop-opacity=".13"/>
      <stop offset="1" stop-color="#FFFFFF" stop-opacity=".055"/>
    </linearGradient>
    <filter id="shadow" x="-20%" y="-20%" width="140%" height="150%">
      <feDropShadow dx="0" dy="18" stdDeviation="18" flood-color="#000000" flood-opacity=".28"/>
    </filter>
    <style>
      .h{font-family:Inter,Segoe UI,Arial,sans-serif;font-weight:900}
      .t{font-family:Inter,Segoe UI,Arial,sans-serif;font-weight:800}
      .s{font-family:Inter,Segoe UI,Arial,sans-serif;font-weight:500}
      .label{font-family:Inter,Segoe UI,Arial,sans-serif;font-weight:800;font-size:13px;fill:#fff}
    </style>
  </defs>

  <rect width="1600" height="1060" rx="34" fill="#020617"/>
  <rect width="1600" height="1060" rx="34" fill="url(#auroraA)"/>
  <rect width="1600" height="1060" rx="34" fill="url(#auroraB)"/>
  <text x="800" y="88" text-anchor="middle" fill="url(#headline)" class="h" font-size="72">Tech Stack</text>
  <text x="800" y="130" text-anchor="middle" fill="#C4B5FD" class="s" font-size="23">AI products - Full Stack Systems - Workflow Automation</text>

  <g filter="url(#shadow)">
    <g transform="translate(30 160)">
      <rect width="500" height="350" rx="18" fill="url(#card)" stroke="#8B5CF6"/>
      <rect x="26" y="26" width="70" height="70" rx="20" fill="#8B5CF6" fill-opacity=".15" stroke="#8B5CF6"/>
      <image href="../logos/Frontend/React.png" x="43" y="43" width="36" height="36" preserveAspectRatio="xMidYMid meet"/>
      <text x="120" y="56" fill="#FFFFFF" class="h" font-size="28">Frontend</text>
      <text x="120" y="84" fill="#CBD5E1" class="s" font-size="17">Responsive and interactive UIs</text>
      <path d="M120 105H475" stroke="#FFFFFF" stroke-opacity=".08"/>
      <g text-anchor="middle">
        <g transform="translate(22 124)"><rect width="84" height="96" rx="12" fill="url(#tile)" stroke="#FFFFFF" stroke-opacity=".08"/><image href="../logos/Frontend/React.png" x="20" y="14" width="44" height="44" preserveAspectRatio="xMidYMid meet"/><text x="42" y="78" class="label">React</text></g>
        <g transform="translate(118 124)"><rect width="84" height="96" rx="12" fill="url(#tile)" stroke="#FFFFFF" stroke-opacity=".08"/><image href="../logos/Frontend/Next.png" x="20" y="14" width="44" height="44" preserveAspectRatio="xMidYMid meet"/><text x="42" y="78" class="label">Next.js</text></g>
        <g transform="translate(214 124)"><rect width="84" height="96" rx="12" fill="url(#tile)" stroke="#FFFFFF" stroke-opacity=".08"/><image href="../logos/Frontend/JS.png" x="20" y="14" width="44" height="44" preserveAspectRatio="xMidYMid meet"/><text x="42" y="78" class="label">JavaScript</text></g>
        <g transform="translate(310 124)"><rect width="84" height="96" rx="12" fill="url(#tile)" stroke="#FFFFFF" stroke-opacity=".08"/><image href="../logos/Frontend/HTML.png" x="20" y="14" width="44" height="44" preserveAspectRatio="xMidYMid meet"/><text x="42" y="78" class="label">HTML</text></g>
        <g transform="translate(406 124)"><rect width="84" height="96" rx="12" fill="url(#tile)" stroke="#FFFFFF" stroke-opacity=".08"/><image href="../logos/Frontend/CSS.png" x="20" y="14" width="44" height="44" preserveAspectRatio="xMidYMid meet"/><text x="42" y="78" class="label">CSS</text></g>
        <g transform="translate(118 238)"><rect width="104" height="82" rx="12" fill="url(#tile)" stroke="#FFFFFF" stroke-opacity=".08"/><image href="../logos/Frontend/Bootstrap.png" x="32" y="10" width="40" height="40" preserveAspectRatio="xMidYMid meet"/><text x="52" y="67" class="label">Bootstrap</text></g>
      </g>
    </g>

    <g transform="translate(550 160)">
      <rect width="500" height="350" rx="18" fill="url(#card)" stroke="#10B981"/>
      <rect x="26" y="26" width="70" height="70" rx="20" fill="#10B981" fill-opacity=".13" stroke="#10B981"/>
      <image href="../logos/Backend/Node.png" x="43" y="43" width="36" height="36" preserveAspectRatio="xMidYMid meet"/>
      <text x="120" y="56" fill="#FFFFFF" class="h" font-size="28">Backend</text>
      <text x="120" y="84" fill="#CBD5E1" class="s" font-size="17">APIs, services and server-side logic</text>
      <path d="M120 105H475" stroke="#FFFFFF" stroke-opacity=".08"/>
      <g text-anchor="middle">
        <g transform="translate(22 124)"><rect width="84" height="96" rx="12" fill="url(#tile)" stroke="#FFFFFF" stroke-opacity=".08"/><image href="../logos/Backend/Node.png" x="20" y="14" width="44" height="44" preserveAspectRatio="xMidYMid meet"/><text x="42" y="78" class="label">Node.js</text></g>
        <g transform="translate(118 124)"><rect width="84" height="96" rx="12" fill="url(#tile)" stroke="#FFFFFF" stroke-opacity=".08"/><image href="../logos/Backend/Fastapi.png" x="20" y="14" width="44" height="44" preserveAspectRatio="xMidYMid meet"/><text x="42" y="78" class="label">FastAPI</text></g>
        <g transform="translate(214 124)"><rect width="84" height="96" rx="12" fill="url(#tile)" stroke="#FFFFFF" stroke-opacity=".08"/><image href="../logos/Backend/Flask.png" x="20" y="14" width="44" height="44" preserveAspectRatio="xMidYMid meet"/><text x="42" y="78" class="label">Flask</text></g>
        <g transform="translate(310 124)"><rect width="84" height="96" rx="12" fill="url(#tile)" stroke="#FFFFFF" stroke-opacity=".08"/><image href="../logos/Backend/Rest.png" x="20" y="14" width="44" height="44" preserveAspectRatio="xMidYMid meet"/><text x="42" y="78" class="label">REST</text></g>
        <g transform="translate(406 124)"><rect width="84" height="96" rx="12" fill="url(#tile)" stroke="#FFFFFF" stroke-opacity=".08"/><image href="../logos/Backend/sequelize-logo-removebg-preview.png" x="20" y="14" width="44" height="44" preserveAspectRatio="xMidYMid meet"/><text x="42" y="78" class="label">Sequelize</text></g>
      </g>
    </g>

    <g transform="translate(1070 160)">
      <rect width="500" height="350" rx="18" fill="url(#card)" stroke="#8B5CF6"/>
      <rect x="26" y="26" width="70" height="70" rx="20" fill="#A855F7" fill-opacity=".13" stroke="#A855F7"/>
      <image href="../logos/AI_DATA/OpenAI.png" x="43" y="43" width="36" height="36" preserveAspectRatio="xMidYMid meet"/>
      <text x="120" y="56" fill="#FFFFFF" class="h" font-size="28">AI / Data</text>
      <text x="120" y="84" fill="#CBD5E1" class="s" font-size="17">Models, data processing and intelligence</text>
      <path d="M120 105H475" stroke="#FFFFFF" stroke-opacity=".08"/>
      <g text-anchor="middle">
        <g transform="translate(22 124)"><rect width="84" height="96" rx="12" fill="url(#tile)" stroke="#FFFFFF" stroke-opacity=".08"/><image href="../logos/AI_DATA/Python.png" x="20" y="14" width="44" height="44" preserveAspectRatio="xMidYMid meet"/><text x="42" y="78" class="label">Python</text></g>
        <g transform="translate(118 124)"><rect width="84" height="96" rx="12" fill="url(#tile)" stroke="#FFFFFF" stroke-opacity=".08"/><image href="../logos/AI_DATA/OpenAI.png" x="20" y="14" width="44" height="44" preserveAspectRatio="xMidYMid meet"/><text x="42" y="78" class="label">OpenAI</text></g>
        <g transform="translate(214 124)"><rect width="84" height="96" rx="12" fill="url(#tile)" stroke="#FFFFFF" stroke-opacity=".08"/><image href="../logos/AI_DATA/Gemini.png" x="20" y="14" width="44" height="44" preserveAspectRatio="xMidYMid meet"/><text x="42" y="78" class="label">Gemini</text></g>
        <g transform="translate(310 124)"><rect width="84" height="96" rx="12" fill="url(#tile)" stroke="#FFFFFF" stroke-opacity=".08"/><image href="../logos/AI_DATA/Langchain.png" x="20" y="14" width="44" height="44" preserveAspectRatio="xMidYMid meet"/><text x="42" y="78" class="label">LangChain</text></g>
        <g transform="translate(406 124)"><rect width="84" height="96" rx="12" fill="url(#tile)" stroke="#FFFFFF" stroke-opacity=".08"/><image href="../logos/AI_DATA/OpenCV.png" x="20" y="14" width="44" height="44" preserveAspectRatio="xMidYMid meet"/><text x="42" y="78" class="label">OpenCV</text></g>
        <g transform="translate(70 238)"><rect width="104" height="82" rx="12" fill="url(#tile)" stroke="#FFFFFF" stroke-opacity=".08"/><image href="../logos/AI_DATA/Numpy.png" x="32" y="10" width="40" height="40" preserveAspectRatio="xMidYMid meet"/><text x="52" y="67" class="label">NumPy</text></g>
        <g transform="translate(198 238)"><rect width="104" height="82" rx="12" fill="url(#tile)" stroke="#FFFFFF" stroke-opacity=".08"/><image href="../logos/AI_DATA/Pandas.png" x="32" y="10" width="40" height="40" preserveAspectRatio="xMidYMid meet"/><text x="52" y="67" class="label">Pandas</text></g>
        <g transform="translate(326 238)"><rect width="104" height="82" rx="12" fill="url(#tile)" stroke="#FFFFFF" stroke-opacity=".08"/><image href="../logos/AI_DATA/Scikit-Learn.png" x="32" y="10" width="40" height="40" preserveAspectRatio="xMidYMid meet"/><text x="52" y="67" class="label">Scikit</text></g>
      </g>
    </g>

    <g transform="translate(30 530)">
      <rect width="500" height="250" rx="18" fill="url(#card)" stroke="#F59E0B"/>
      <rect x="26" y="26" width="70" height="70" rx="20" fill="#F59E0B" fill-opacity=".13" stroke="#F59E0B"/>
      <image href="../logos/DB/Supabase.png" x="43" y="43" width="36" height="36" preserveAspectRatio="xMidYMid meet"/>
      <text x="120" y="56" fill="#FFFFFF" class="h" font-size="28">Databases</text>
      <text x="120" y="84" fill="#CBD5E1" class="s" font-size="17">Data storage and backend platforms</text>
      <path d="M120 105H475" stroke="#FFFFFF" stroke-opacity=".08"/>
      <g text-anchor="middle">
        <g transform="translate(128 132)"><rect width="104" height="82" rx="12" fill="url(#tile)" stroke="#FFFFFF" stroke-opacity=".08"/><image href="../logos/DB/Supabase.png" x="32" y="10" width="40" height="40" preserveAspectRatio="xMidYMid meet"/><text x="52" y="67" class="label">Supabase</text></g>
        <g transform="translate(268 132)"><rect width="104" height="82" rx="12" fill="url(#tile)" stroke="#FFFFFF" stroke-opacity=".08"/><image href="../logos/DB/MySQL.png" x="32" y="10" width="40" height="40" preserveAspectRatio="xMidYMid meet"/><text x="52" y="67" class="label">MySQL</text></g>
      </g>
    </g>

    <g transform="translate(550 530)">
      <rect width="500" height="250" rx="18" fill="url(#card)" stroke="#EC4899"/>
      <rect x="26" y="26" width="70" height="70" rx="20" fill="#EC4899" fill-opacity=".13" stroke="#EC4899"/>
      <image href="../logos/Automation/n8n-color-removebg-preview.png" x="43" y="43" width="36" height="36" preserveAspectRatio="xMidYMid meet"/>
      <text x="120" y="56" fill="#FFFFFF" class="h" font-size="28">Automation / Testing</text>
      <text x="120" y="84" fill="#CBD5E1" class="s" font-size="17">Automation, browser testing and quality</text>
      <path d="M120 105H475" stroke="#FFFFFF" stroke-opacity=".08"/>
      <g text-anchor="middle">
        <g transform="translate(22 132)"><rect width="84" height="82" rx="12" fill="url(#tile)" stroke="#FFFFFF" stroke-opacity=".08"/><image href="../logos/Automation/n8n-color-removebg-preview.png" x="22" y="10" width="40" height="40" preserveAspectRatio="xMidYMid meet"/><text x="42" y="67" class="label">n8n</text></g>
        <g transform="translate(118 132)"><rect width="84" height="82" rx="12" fill="url(#tile)" stroke="#FFFFFF" stroke-opacity=".08"/><image href="../logos/Automation/Selenium.png" x="22" y="10" width="40" height="40" preserveAspectRatio="xMidYMid meet"/><text x="42" y="67" class="label">Selenium</text></g>
        <g transform="translate(214 132)"><rect width="84" height="82" rx="12" fill="url(#tile)" stroke="#FFFFFF" stroke-opacity=".08"/><image href="../logos/Automation/PlayWright.png" x="22" y="10" width="40" height="40" preserveAspectRatio="xMidYMid meet"/><text x="42" y="67" class="label">Playwright</text></g>
        <g transform="translate(310 132)"><rect width="84" height="82" rx="12" fill="url(#tile)" stroke="#FFFFFF" stroke-opacity=".08"/><image href="../logos/Automation/Puppeteer.png" x="22" y="10" width="40" height="40" preserveAspectRatio="xMidYMid meet"/><text x="42" y="67" class="label">Puppeteer</text></g>
      </g>
    </g>

    <g transform="translate(1070 530)">
      <rect width="500" height="250" rx="18" fill="url(#card)" stroke="#0EA5E9"/>
      <rect x="26" y="26" width="70" height="70" rx="20" fill="#0EA5E9" fill-opacity=".13" stroke="#0EA5E9"/>
      <image href="../logos/Cloud/Docker.png" x="43" y="43" width="36" height="36" preserveAspectRatio="xMidYMid meet"/>
      <text x="120" y="56" fill="#FFFFFF" class="h" font-size="28">Cloud / DevOps</text>
      <text x="120" y="84" fill="#CBD5E1" class="s" font-size="17">Deploy, manage and scale applications</text>
      <path d="M120 105H475" stroke="#FFFFFF" stroke-opacity=".08"/>
      <g text-anchor="middle">
        <g transform="translate(22 132)"><rect width="84" height="82" rx="12" fill="url(#tile)" stroke="#FFFFFF" stroke-opacity=".08"/><image href="../logos/Cloud/AWS.png" x="22" y="10" width="40" height="40" preserveAspectRatio="xMidYMid meet"/><text x="42" y="67" class="label">AWS</text></g>
        <g transform="translate(118 132)"><rect width="84" height="82" rx="12" fill="url(#tile)" stroke="#FFFFFF" stroke-opacity=".08"/><image href="../logos/Cloud/GCP.png" x="22" y="10" width="40" height="40" preserveAspectRatio="xMidYMid meet"/><text x="42" y="67" class="label">GCP</text></g>
        <g transform="translate(214 132)"><rect width="84" height="82" rx="12" fill="url(#tile)" stroke="#FFFFFF" stroke-opacity=".08"/><image href="../logos/Cloud/Cloudflare.png" x="22" y="10" width="40" height="40" preserveAspectRatio="xMidYMid meet"/><text x="42" y="67" class="label">Cloudflare</text></g>
        <g transform="translate(310 132)"><rect width="84" height="82" rx="12" fill="url(#tile)" stroke="#FFFFFF" stroke-opacity=".08"/><image href="../logos/Cloud/Vercel.png" x="22" y="10" width="40" height="40" preserveAspectRatio="xMidYMid meet"/><text x="42" y="67" class="label">Vercel</text></g>
        <g transform="translate(406 132)"><rect width="84" height="82" rx="12" fill="url(#tile)" stroke="#FFFFFF" stroke-opacity=".08"/><image href="../logos/Cloud/Docker.png" x="22" y="10" width="40" height="40" preserveAspectRatio="xMidYMid meet"/><text x="42" y="67" class="label">Docker</text></g>
      </g>
    </g>

    <g transform="translate(30 800)">
      <rect width="1540" height="220" rx="18" fill="url(#card)" stroke="#8B5CF6"/>
      <rect x="26" y="26" width="70" height="70" rx="20" fill="#8B5CF6" fill-opacity=".13" stroke="#8B5CF6"/>
      <image href="../logos/Tools/Git.png" x="43" y="43" width="36" height="36" preserveAspectRatio="xMidYMid meet"/>
      <text x="120" y="56" fill="#FFFFFF" class="h" font-size="28">Tools / Design</text>
      <text x="120" y="84" fill="#CBD5E1" class="s" font-size="17">Development tools and design workflow</text>
      <path d="M120 105H1510" stroke="#FFFFFF" stroke-opacity=".08"/>
      <g text-anchor="middle">
        <g transform="translate(38 124)"><rect width="140" height="72" rx="12" fill="url(#tile)" stroke="#FFFFFF" stroke-opacity=".08"/><image href="../logos/Tools/Git.png" x="50" y="8" width="40" height="40" preserveAspectRatio="xMidYMid meet"/><text x="70" y="62" class="label">Git</text></g>
        <g transform="translate(198 124)"><rect width="140" height="72" rx="12" fill="url(#tile)" stroke="#FFFFFF" stroke-opacity=".08"/><image href="../logos/Tools/Github.png" x="50" y="8" width="40" height="40" preserveAspectRatio="xMidYMid meet"/><text x="70" y="62" class="label">GitHub</text></g>
        <g transform="translate(358 124)"><rect width="140" height="72" rx="12" fill="url(#tile)" stroke="#FFFFFF" stroke-opacity=".08"/><image href="../logos/Tools/Figma.png" x="50" y="8" width="40" height="40" preserveAspectRatio="xMidYMid meet"/><text x="70" y="62" class="label">Figma</text></g>
        <g transform="translate(518 124)"><rect width="140" height="72" rx="12" fill="url(#tile)" stroke="#FFFFFF" stroke-opacity=".08"/><image href="../logos/Tools/Notion.png" x="50" y="8" width="40" height="40" preserveAspectRatio="xMidYMid meet"/><text x="70" y="62" class="label">Notion</text></g>
        <g transform="translate(678 124)"><rect width="140" height="72" rx="12" fill="url(#tile)" stroke="#FFFFFF" stroke-opacity=".08"/><image href="../logos/Tools/Jira.png" x="50" y="8" width="40" height="40" preserveAspectRatio="xMidYMid meet"/><text x="70" y="62" class="label">Jira</text></g>
        <g transform="translate(838 124)"><rect width="140" height="72" rx="12" fill="url(#tile)" stroke="#FFFFFF" stroke-opacity=".08"/><image href="../logos/Tools/Confluence.png" x="50" y="8" width="40" height="40" preserveAspectRatio="xMidYMid meet"/><text x="70" y="62" class="label">Confluence</text></g>
        <g transform="translate(998 124)"><rect width="140" height="72" rx="12" fill="url(#tile)" stroke="#FFFFFF" stroke-opacity=".08"/><image href="../logos/Tools/Canva.png" x="50" y="8" width="40" height="40" preserveAspectRatio="xMidYMid meet"/><text x="70" y="62" class="label">Canva</text></g>
      </g>
    </g>
  </g>
</svg>
